<svg width="36" height="36" viewBox="0 0 36 36" fill="none" xmlns="http://www.w3.org/2000/svg">
<rect width="36" height="36" rx="10" fill="#FFF7EB"/>
<g clip-path="url(#clip0)">
<path d="M21.515 11.7111H14.485V24.2888H21.515V11.7111Z" fill="#FF5F00"/>
<path d="M14.9313 18.0001C14.9313 15.4446 16.1365 13.1779 17.9888 11.7112C16.6275 10.6446 14.909 10.0001 13.0343 10.0001C8.59313 10.0001 5 13.5779 5 18.0001C5 22.4223 8.59313 26.0001 13.0343 26.0001C14.909 26.0001 16.6275 25.3557 17.9888 24.289C16.1365 22.8446 14.9313 20.5557 14.9313 18.0001Z" fill="#EB001B"/>
<path d="M31 18C31 22.4222 27.4069 26 22.9657 26C21.0911 26 19.3726 25.3556 18.0112 24.2889C19.8859 22.8222 21.0687 20.5556 21.0687 18C21.0687 15.4444 19.8636 13.1778 18.0112 11.7111C19.3726 10.6444 21.0911 10 22.9657 10C27.4069 10 31 13.6 31 18Z" fill="#F79E1B"/>
</g>
<defs>
<clipPath id="clip0">
<rect width="26" height="16" fill="white" transform="translate(5 10)"/>
</clipPath>
</defs>
</svg>
