<svg width="129" height="114" viewBox="0 0 129 114" fill="none" xmlns="http://www.w3.org/2000/svg">
<path d="M115.598 21.6288H14.1976C11.9765 21.6288 10.1759 23.4271 10.1759 25.6452V93.7934H119.62V25.6455C119.62 23.4271 117.819 21.6288 115.598 21.6288Z" fill="url(#paint0_linear)"/>
<path d="M111.576 25.4916H18.2192C15.9858 25.4916 14.1754 27.2997 14.1754 29.5302V85.8923C14.1754 88.1228 15.9858 89.9309 18.2192 89.9309H111.576C113.809 89.9309 115.62 88.1228 115.62 85.8923V29.5302C115.62 27.2997 113.809 25.4916 111.576 25.4916Z" fill="url(#paint1_linear)"/>
<path d="M44.4178 69.443H20.0674C19.3009 69.443 18.6797 68.8226 18.6797 68.0571V66.167C18.6797 65.4015 19.3009 64.7811 20.0674 64.7811H44.4178C45.1843 64.7811 45.8055 65.4015 45.8055 66.167V68.0571C45.8055 68.8226 45.1843 69.443 44.4178 69.443Z" fill="#3E5959"/>
<path d="M44.4178 77.2553H20.0674C19.3009 77.2553 18.6797 76.6349 18.6797 75.8694V73.9792C18.6797 73.2137 19.3009 72.5933 20.0674 72.5933H44.4178C45.1843 72.5933 45.8055 73.2137 45.8055 73.9792V75.8694C45.8055 76.6346 45.1843 77.2553 44.4178 77.2553Z" fill="#3E5959"/>
<path d="M32.0534 85.0673H20.0674C19.3009 85.0673 18.6797 84.4469 18.6797 83.6814V81.7913C18.6797 81.0258 19.3009 80.4053 20.0674 80.4053H32.0534C32.8198 80.4053 33.4411 81.0258 33.4411 81.7913V83.6814C33.4411 84.4469 32.8198 85.0673 32.0534 85.0673Z" fill="#3E5959"/>
<path d="M118.892 93.2684H10.9036C9.82977 93.2684 8.82956 93.8135 8.24828 94.7153L1.99797 104.414C1.58156 105.06 2.04597 105.91 2.81548 105.91H126.98C127.749 105.91 128.213 105.06 127.797 104.414L121.547 94.715C120.966 93.8133 119.965 93.2684 118.892 93.2684Z" fill="url(#paint2_linear)"/>
<path d="M125.026 113.547H4.7697C2.58482 113.547 0.813843 111.778 0.813843 109.596V107.226C0.813843 105.044 2.58482 103.275 4.7697 103.275H125.026C127.21 103.275 128.981 105.044 128.981 107.226V109.596C128.981 111.778 127.211 113.547 125.026 113.547Z" fill="url(#paint3_linear)"/>
<path d="M58.5684 100.729H71.2269C72.5377 100.729 73.6002 101.79 73.6002 103.1C73.6002 104.409 72.5377 105.47 71.2269 105.47H58.5684C57.2576 105.47 56.1951 104.409 56.1951 103.1C56.1948 101.79 57.2576 100.729 58.5684 100.729Z" fill="url(#paint4_linear)"/>
<path d="M116.211 97.9088L113.597 93.2684H16.1983L13.5844 97.9088C13.0951 98.7777 13.7236 99.8511 14.7218 99.8511H115.074C116.072 99.8511 116.701 98.7777 116.211 97.9088Z" fill="url(#paint5_linear)"/>
<path d="M89.4966 21.6288H40.7255C40.5094 22.9464 40.395 24.298 40.395 25.6766C40.395 33.0763 43.6362 39.7174 48.7752 44.2692L57.8474 53.3826V57.6171H51.3255C48.4779 57.6171 46.7735 60.78 48.3422 63.1535L62.2911 84.2607C62.7045 84.8861 63.2677 85.3231 63.8902 85.5826L72.0379 93.7934H119.619V51.7125L89.4966 21.6288Z" fill="url(#paint6_linear)"/>
<path d="M61.9143 83.8843L47.9654 62.7771C46.397 60.4035 48.1014 57.2407 50.9487 57.2407H57.4707V40.1818C57.4707 38.2836 59.0114 36.7451 60.9118 36.7451H68.8836C70.7843 36.7451 72.3248 38.2839 72.3248 40.1818V57.2407H78.8468C81.6944 57.2407 83.3987 60.4035 81.8301 62.7771L67.8811 83.8843C66.468 86.0221 63.3272 86.0221 61.9143 83.8843Z" fill="url(#paint7_linear)"/>
<path d="M64.8977 50.1475C78.6383 50.1475 89.7773 39.0231 89.7773 25.3004C89.7773 11.5777 78.6383 0.453339 64.8977 0.453339C51.157 0.453339 40.0181 11.5777 40.0181 25.3004C40.0181 39.0231 51.157 50.1475 64.8977 50.1475Z" fill="url(#paint8_linear)"/>
<path d="M64.8977 44.6259C75.5848 44.6259 84.2485 35.9736 84.2485 25.3004C84.2485 14.6272 75.5848 5.97488 64.8977 5.97488C54.2105 5.97488 45.5469 14.6272 45.5469 25.3004C45.5469 35.9736 54.2105 44.6259 64.8977 44.6259Z" fill="url(#paint9_linear)"/>
<path d="M74 16L89.1774 30.7406C87.1199 39.9388 79.9569 47.2115 70.813 49.4387L58.5625 36.2055C57.652 35.4465 59.1142 33.5583 59.1142 32.6585C59.1142 31.4285 57.2008 30.6197 58.5775 30.6197C60.0992 30.6197 59.3309 31.7543 62.0116 32.2246V28.814C61.9683 28.7668 58.9248 24.7184 58.9248 24.7184C57.6457 23.6085 58.7663 22.1054 58.7663 19.9108C58.7663 15.3161 60.1716 14.1093 64.0116 13.5667L68.0194 13.5431C69.8374 13.7285 72.5881 15.0469 74 16Z" fill="url(#paint10_linear)"/>
<path d="M67.8281 32.9688H62.8594V36H58.1719V32.9688H55V29.1719H58.1719V27.9844H55V24.1875H58.1719V13.25H67.0156C68.724 13.25 70.224 13.5573 71.5156 14.1719C72.8073 14.7865 73.8073 15.6667 74.5156 16.8125C75.2344 17.9479 75.5938 19.2448 75.5938 20.7031C75.5938 22.9531 74.8281 24.7292 73.2969 26.0312C71.776 27.3333 69.6562 27.9844 66.9375 27.9844H62.8594V29.1719H67.8281V32.9688ZM62.8594 24.1875H66.9062C69.5312 24.1875 70.8438 23.0365 70.8438 20.7344C70.8438 19.6406 70.5104 18.7604 69.8438 18.0938C69.1771 17.4167 68.2552 17.0729 67.0781 17.0625H62.8594V24.1875Z" fill="url(#paint11_linear)"/>
<defs>
<linearGradient id="paint0_linear" x1="52.3499" y1="31.4138" x2="80.5065" y2="94.1244" gradientUnits="userSpaceOnUse">
<stop stop-color="#537983"/>
<stop offset="1" stop-color="#3E5959"/>
</linearGradient>
<linearGradient id="paint1_linear" x1="36.8556" y1="29.7058" x2="85.6019" y2="78.5161" gradientUnits="userSpaceOnUse">
<stop stop-color="#EEF5F6"/>
<stop offset="1" stop-color="#CBE5E8"/>
</linearGradient>
<linearGradient id="paint2_linear" x1="64.8976" y1="94.5853" x2="64.8976" y2="109.334" gradientUnits="userSpaceOnUse">
<stop stop-color="#537983"/>
<stop offset="1" stop-color="#3E5959"/>
</linearGradient>
<linearGradient id="paint3_linear" x1="64.8977" y1="104.6" x2="64.8977" y2="110.574" gradientUnits="userSpaceOnUse">
<stop stop-color="#537983"/>
<stop offset="1" stop-color="#3E5959"/>
</linearGradient>
<linearGradient id="paint4_linear" x1="64.8977" y1="105.777" x2="64.8977" y2="101.632" gradientUnits="userSpaceOnUse">
<stop stop-color="#537983"/>
<stop offset="1" stop-color="#3E5959"/>
</linearGradient>
<linearGradient id="paint5_linear" x1="64.8977" y1="86.6856" x2="64.8977" y2="99.5908" gradientUnits="userSpaceOnUse">
<stop stop-color="#537983"/>
<stop offset="1" stop-color="#3E5959"/>
</linearGradient>
<linearGradient id="paint6_linear" x1="100.111" y1="67.3291" x2="41.0837" y2="37.9027" gradientUnits="userSpaceOnUse">
<stop stop-color="#3E5959" stop-opacity="0"/>
<stop offset="1" stop-color="#384949"/>
</linearGradient>
<linearGradient id="paint7_linear" x1="56.2626" y1="50.5315" x2="75.9538" y2="70.2484" gradientUnits="userSpaceOnUse">
<stop stop-color="#C1E9AF"/>
<stop offset="1" stop-color="#4FC123"/>
</linearGradient>
<linearGradient id="paint8_linear" x1="52.3322" y1="12.7514" x2="80.4598" y2="40.9158" gradientUnits="userSpaceOnUse">
<stop stop-color="#FFE177"/>
<stop offset="1" stop-color="#FE9738"/>
</linearGradient>
<linearGradient id="paint9_linear" x1="74.6708" y1="35.0608" x2="52.7937" y2="13.1549" gradientUnits="userSpaceOnUse">
<stop stop-color="#FFE177"/>
<stop offset="1" stop-color="#FE9738"/>
</linearGradient>
<linearGradient id="paint10_linear" x1="80.7786" y1="36.6198" x2="58.4961" y2="25.4538" gradientUnits="userSpaceOnUse">
<stop stop-color="#FE9738" stop-opacity="0"/>
<stop offset="1" stop-color="#F46700"/>
</linearGradient>
<linearGradient id="paint11_linear" x1="59.3309" y1="18.3059" x2="74.0532" y2="33.187" gradientUnits="userSpaceOnUse">
<stop stop-color="#FE9738"/>
<stop offset="1" stop-color="#F46700"/>
</linearGradient>
</defs>
</svg>
