<svg width="96" height="118" viewBox="0 0 96 118" fill="none" xmlns="http://www.w3.org/2000/svg">
<path d="M89.9449 117.999H6.01466C3.06525 117.999 0.674377 115.61 0.674377 112.662V43.7162L43.321 1.90229C45.9082 -0.63377 50.0513 -0.63377 52.6385 1.90229L95.2851 43.7162V112.661C95.2851 115.61 92.8943 117.999 89.9449 117.999Z" fill="url(#paint0_linear)"/>
<path d="M88.9593 112.609C88.9593 115.586 86.5441 118 83.565 118H7.00018V15.1317H83.565C86.5441 15.1317 88.9593 17.5454 88.9593 20.5226V112.609Z" fill="url(#paint1_linear)"/>
<path d="M91.2232 111.766V51.6133L73.7718 34.1733C73.0511 33.1866 72.0241 32.4466 70.8286 32.0865L59.6778 28.7303C52.0485 26.4346 43.911 26.4346 36.2817 28.7303L25.1308 32.0865C23.4507 32.5924 22.0986 33.8474 21.4707 35.4859L16.1376 49.404C12.4738 58.9658 15.0349 69.7033 22.4021 76.5939L63.8353 118H84.9847C88.4305 118 91.2232 115.208 91.2232 111.766Z" fill="url(#paint2_linear)"/>
<path d="M47.9802 86.9443L2.58149 116.748C2.50222 116.682 2.42474 116.614 2.34907 116.542C1.31849 115.57 0.674377 114.192 0.674377 112.662V43.7152L42.8588 82.2647L47.9802 86.9443Z" fill="url(#paint3_linear)"/>
<path d="M95.2851 43.7152V112.662C95.2851 114.191 94.641 115.57 93.6104 116.542C93.5347 116.614 93.4582 116.682 93.378 116.748L47.9802 86.9443L53.1006 82.2647L95.2851 43.7152Z" fill="url(#paint4_linear)"/>
<path d="M93.6104 116.542C93.5348 116.614 93.4582 116.682 93.378 116.748C92.4501 117.529 91.2538 118 89.9439 118H6.01555C4.7057 118 3.50936 117.529 2.58148 116.748C2.50221 116.682 2.42473 116.614 2.34906 116.542L39.0716 84.5964C40.2265 83.5917 41.5075 82.8148 42.8588 82.2647C46.1361 80.9305 49.8234 80.9305 53.1007 82.2647C54.4529 82.8148 55.7339 83.5917 56.8888 84.5964L93.6104 116.542Z" fill="url(#paint5_linear)"/>
<path d="M0.674377 94.6605V112.662C0.674377 114.191 1.31849 115.57 2.34907 116.542C2.42474 116.614 2.50222 116.682 2.58149 116.748C3.50938 117.529 4.70572 118 6.01556 118H89.944C91.2538 118 92.451 117.529 93.378 116.748C93.4582 116.682 93.5357 116.614 93.6104 116.542C94.641 115.57 95.2851 114.191 95.2851 112.662V94.6605H0.674377Z" fill="url(#paint6_linear)"/>
<path d="M93.7915 116.362C93.7969 116.356 93.8023 116.351 93.8077 116.344C93.8366 116.315 93.8645 116.283 93.8933 116.252C93.9176 116.225 93.9429 116.199 93.9672 116.171C93.9753 116.162 93.9825 116.153 93.9906 116.144C93.9987 116.135 94.0059 116.125 94.014 116.115C94.0546 116.068 94.0942 116.02 94.1329 115.972C94.1429 115.96 94.1519 115.947 94.1618 115.935C94.1906 115.899 94.2176 115.861 94.2456 115.823C94.26 115.804 94.2753 115.784 94.2888 115.765C94.2996 115.749 94.3104 115.734 94.3212 115.72C94.3609 115.664 94.3987 115.607 94.4356 115.549C94.4464 115.531 94.4582 115.514 94.4699 115.496C94.505 115.441 94.5383 115.384 94.5717 115.327C94.5834 115.306 94.5942 115.287 94.6059 115.267C94.6374 115.211 94.6672 115.154 94.6969 115.098C94.7077 115.075 94.7194 115.053 94.7311 115.03C94.759 114.974 94.7852 114.918 94.8113 114.861C94.8221 114.836 94.8329 114.812 94.8437 114.788C94.8689 114.732 94.8915 114.674 94.914 114.617C94.9239 114.592 94.9347 114.565 94.9446 114.54C94.95 114.526 94.9545 114.511 94.9599 114.498C94.9753 114.454 94.9906 114.411 95.0059 114.367C95.0149 114.34 95.0239 114.313 95.0329 114.286C95.0428 114.255 95.0518 114.223 95.0608 114.193C95.0689 114.165 95.077 114.138 95.0852 114.111C95.0924 114.082 95.1014 114.055 95.1086 114.026C95.1203 113.98 95.1311 113.934 95.1419 113.888C95.1455 113.874 95.1482 113.861 95.1518 113.847C95.1581 113.819 95.1653 113.791 95.1716 113.762C95.177 113.735 95.1815 113.709 95.1861 113.682C95.1933 113.646 95.2005 113.609 95.2068 113.573C95.2113 113.546 95.2167 113.52 95.2203 113.494C95.2302 113.435 95.2374 113.374 95.2446 113.314C95.2455 113.306 95.2464 113.298 95.2482 113.289C95.25 113.267 95.2536 113.245 95.2563 113.222C95.2599 113.184 95.2626 113.145 95.2653 113.106C95.2689 113.063 95.2734 113.02 95.2761 112.977C95.2761 112.966 95.2779 112.956 95.2779 112.946C95.2833 112.852 95.2851 112.758 95.2851 112.662V55.6726L89.0359 49.4266L53.1007 82.2648C49.8234 80.9306 46.1361 80.9306 42.8588 82.2648L14.5611 56.4055C13.9791 63.8867 16.7988 71.3535 22.4022 76.594L63.8353 118H89.944C90.0854 118 90.2241 117.992 90.362 117.981C90.3962 117.978 90.4313 117.977 90.4656 117.974C90.5746 117.963 90.6827 117.947 90.7899 117.93C90.8079 117.927 90.8268 117.925 90.8439 117.923C90.8809 117.916 90.9178 117.91 90.9547 117.903C90.9646 117.901 90.9745 117.897 90.9854 117.896C91.0989 117.873 91.2115 117.849 91.3223 117.819C91.3547 117.81 91.3862 117.801 91.4187 117.792C91.5439 117.756 91.6682 117.716 91.7898 117.671C91.8069 117.665 91.8231 117.658 91.8403 117.652C91.9628 117.605 92.0835 117.554 92.2015 117.499C92.2141 117.493 92.2267 117.488 92.2393 117.481C92.3664 117.421 92.4898 117.355 92.6105 117.285C92.624 117.278 92.6366 117.271 92.6492 117.264C92.7285 117.217 92.8042 117.165 92.8799 117.115C92.9231 117.086 92.9681 117.06 93.0105 117.03C93.0159 117.027 93.0204 117.023 93.0258 117.02H93.0267C93.1402 116.939 93.251 116.853 93.3573 116.763C93.4429 116.692 93.5276 116.619 93.6086 116.542C93.6086 116.542 93.6096 116.542 93.6105 116.542L93.6132 116.539C93.6735 116.481 93.7339 116.423 93.7915 116.362Z" fill="url(#paint7_linear)"/>
<path d="M70.8286 32.0865L59.6778 28.7303C52.0484 26.4346 43.911 26.4346 36.2816 28.7303L25.1317 32.0865C23.4507 32.5924 22.0985 33.8474 21.4715 35.4859L16.1385 49.404C12.1882 59.7112 15.4673 71.3868 24.2065 78.1343L38.7878 89.3931C44.202 93.5739 51.7584 93.5739 57.1725 89.3931L71.7529 78.1343C80.4921 71.3868 83.7712 59.7103 79.8219 49.404L74.4888 35.4859C73.8609 33.8474 72.5087 32.5924 70.8286 32.0865Z" fill="url(#paint8_linear)"/>
<path d="M57.1725 89.3931L71.7529 78.1343C80.4921 71.3868 83.7712 59.7112 79.8219 49.404L74.4888 35.4868C73.8609 33.8483 72.5087 32.5924 70.8286 32.0865L59.6778 28.7312C55.8636 27.5824 51.9214 27.0081 47.9802 27.0081V92.5287C51.2223 92.5287 54.4654 91.4835 57.1725 89.3931Z" fill="url(#paint9_linear)"/>
<path d="M67.5865 36.0135L58.0185 33.1335C51.471 31.1628 44.4885 31.1628 37.941 33.1335L28.373 36.0135C26.9308 36.4474 25.7705 37.525 25.2317 38.9312L20.6554 50.8742C17.2655 59.7193 20.0797 69.7384 27.5794 75.5289L40.0914 85.1906C44.738 88.7782 51.2215 88.7782 55.8681 85.1906L68.3801 75.5289C75.8798 69.7384 78.694 59.7193 75.3041 50.8742L70.7278 38.9312C70.189 37.525 69.0296 36.4474 67.5865 36.0135Z" fill="url(#paint10_linear)"/>
<path d="M72.2304 59.4204C72.2304 58.7443 72.2016 58.0754 72.1466 57.4137L62.8075 48.0807C61.8174 47.0922 60.2139 47.0922 59.2238 48.0807L45.6686 61.6279C44.6786 62.6164 43.0751 62.6164 42.0859 61.6279L36.7348 56.2803C35.7457 55.2918 34.1413 55.2918 33.1521 56.2803L30.7748 58.6561C29.7856 59.6446 29.7856 61.2471 30.7748 62.2365L51.8918 83.3397C63.4245 81.4698 72.2304 71.4732 72.2304 59.4204Z" fill="url(#paint11_linear)"/>
<path d="M41.6679 73.1216C42.8877 74.3406 44.8669 74.3406 46.0875 73.1216L65.1848 54.0368C66.174 53.0474 66.174 51.445 65.1848 50.4556L62.8075 48.0807C61.8183 47.0922 60.2139 47.0922 59.2247 48.0807L45.6686 61.6279C44.6795 62.6164 43.0751 62.6164 42.0859 61.6279L36.7348 56.2803C35.7457 55.2918 34.1413 55.2918 33.1521 56.2803L30.7748 58.6561C29.7856 59.6446 29.7856 61.2471 30.7748 62.2365L41.6679 73.1216Z" fill="url(#paint12_linear)"/>
<path d="M55.8681 85.1906L68.3801 75.5289C75.8797 69.7384 78.694 59.7193 75.3041 50.8742L70.7277 38.9312C70.189 37.525 69.0296 36.4474 67.5864 36.0134L58.0184 33.1335C54.7447 32.1477 51.362 31.6552 47.9802 31.6552V87.8806C50.7629 87.8815 53.5448 86.9839 55.8681 85.1906Z" fill="url(#paint13_linear)"/>
<defs>
<linearGradient id="paint0_linear" x1="19.5126" y1="7.95048" x2="33.2004" y2="42.0167" gradientUnits="userSpaceOnUse">
<stop stop-color="#45425A"/>
<stop offset="1" stop-color="#2D3251"/>
</linearGradient>
<linearGradient id="paint1_linear" x1="47.9798" y1="38.0172" x2="47.9798" y2="80.8577" gradientUnits="userSpaceOnUse">
<stop stop-color="#ECF7FF"/>
<stop offset="1" stop-color="#C2E0FF"/>
</linearGradient>
<linearGradient id="paint2_linear" x1="75.6341" y1="82.8743" x2="44.9221" y2="52.1423" gradientUnits="userSpaceOnUse">
<stop offset="0.0029" stop-color="#C2E0FF" stop-opacity="0"/>
<stop offset="0.0763" stop-color="#BFDCFD" stop-opacity="0.07451"/>
<stop offset="1" stop-color="#9EB2E7"/>
</linearGradient>
<linearGradient id="paint3_linear" x1="-8.87454" y1="67.7276" x2="27.8959" y2="104.522" gradientUnits="userSpaceOnUse">
<stop stop-color="#FFD459"/>
<stop offset="0.2296" stop-color="#FFD355"/>
<stop offset="0.4362" stop-color="#FFCF4A"/>
<stop offset="0.634" stop-color="#FFC838"/>
<stop offset="0.825" stop-color="#FFBF1F"/>
<stop offset="1" stop-color="#FFB400"/>
</linearGradient>
<linearGradient id="paint4_linear" x1="94.1489" y1="74.1163" x2="66.294" y2="107.143" gradientUnits="userSpaceOnUse">
<stop stop-color="#FFD459"/>
<stop offset="0.2296" stop-color="#FFD355"/>
<stop offset="0.4362" stop-color="#FFCF4A"/>
<stop offset="0.634" stop-color="#FFC838"/>
<stop offset="0.825" stop-color="#FFBF1F"/>
<stop offset="1" stop-color="#FFB400"/>
</linearGradient>
<linearGradient id="paint5_linear" x1="47.9799" y1="90.96" x2="47.9799" y2="123.97" gradientUnits="userSpaceOnUse">
<stop stop-color="#FFD459"/>
<stop offset="0.2296" stop-color="#FFD355"/>
<stop offset="0.4362" stop-color="#FFCF4A"/>
<stop offset="0.634" stop-color="#FFC838"/>
<stop offset="0.825" stop-color="#FFBF1F"/>
<stop offset="1" stop-color="#FFB400"/>
</linearGradient>
<linearGradient id="paint6_linear" x1="47.9799" y1="109.418" x2="47.9799" y2="126.522" gradientUnits="userSpaceOnUse">
<stop stop-color="#E58200" stop-opacity="0"/>
<stop offset="0.0396" stop-color="#E27F04" stop-opacity="0.039216"/>
<stop offset="0.4671" stop-color="#C15D2F" stop-opacity="0.466667"/>
<stop offset="0.8016" stop-color="#AD4949" stop-opacity="0.8"/>
<stop offset="1" stop-color="#A64153"/>
</linearGradient>
<linearGradient id="paint7_linear" x1="81.6815" y1="88.966" x2="28.9507" y2="36.2007" gradientUnits="userSpaceOnUse">
<stop stop-color="#E58200" stop-opacity="0"/>
<stop offset="0.0396" stop-color="#E27F04" stop-opacity="0.039216"/>
<stop offset="0.4671" stop-color="#C15D2F" stop-opacity="0.466667"/>
<stop offset="0.8016" stop-color="#AD4949" stop-opacity="0.8"/>
<stop offset="1" stop-color="#A64153"/>
</linearGradient>
<linearGradient id="paint8_linear" x1="33.6537" y1="40.9233" x2="60.9046" y2="68.1921" gradientUnits="userSpaceOnUse">
<stop stop-color="#ECF7FF"/>
<stop offset="1" stop-color="#C2E0FF"/>
</linearGradient>
<linearGradient id="paint9_linear" x1="77.1431" y1="59.7685" x2="35.9649" y2="59.7685" gradientUnits="userSpaceOnUse">
<stop offset="0.0029" stop-color="#C2E0FF" stop-opacity="0"/>
<stop offset="0.0763" stop-color="#BFDCFD" stop-opacity="0.07451"/>
<stop offset="1" stop-color="#9EB2E7"/>
</linearGradient>
<linearGradient id="paint10_linear" x1="36.0837" y1="43.9941" x2="70.7055" y2="78.6386" gradientUnits="userSpaceOnUse">
<stop stop-color="#00C6F6"/>
<stop offset="0.8567" stop-color="#0B9CFD"/>
<stop offset="1" stop-color="#0D94FE"/>
</linearGradient>
<linearGradient id="paint11_linear" x1="61.7779" y1="70.135" x2="51.9942" y2="60.345" gradientUnits="userSpaceOnUse">
<stop stop-color="#0D94FE" stop-opacity="0"/>
<stop offset="0.5142" stop-color="#0681CD" stop-opacity="0.513725"/>
<stop offset="1" stop-color="#0070A2"/>
</linearGradient>
<linearGradient id="paint12_linear" x1="46.4627" y1="54.8299" x2="55.503" y2="63.8761" gradientUnits="userSpaceOnUse">
<stop stop-color="#F9F9F9"/>
<stop offset="1" stop-color="#E6E6E6"/>
</linearGradient>
<linearGradient id="paint13_linear" x1="62.7565" y1="63.5785" x2="23.1567" y2="50.5671" gradientUnits="userSpaceOnUse">
<stop stop-color="#0D94FE" stop-opacity="0"/>
<stop offset="0.5142" stop-color="#0681CD" stop-opacity="0.513725"/>
<stop offset="1" stop-color="#0070A2"/>
</linearGradient>
</defs>
</svg>
