<svg width="173" height="59" viewBox="0 0 173 59" fill="none" xmlns="http://www.w3.org/2000/svg">
<path d="M7.76998 0.546L12.264 6.216L16.842 0.546H23.394L15.498 10.29L23.604 20.496H16.8L12.054 14.532L7.22398 20.496H0.755981L8.81998 10.5L0.965981 0.546H7.76998Z" fill="white"/>
<path d="M27.065 3.024C29.137 1.008 31.727 0 34.835 0C37.943 0 40.519 1.008 42.563 3.024C44.635 5.012 45.671 7.518 45.671 10.542C45.671 13.538 44.635 16.044 42.563 18.06C40.519 20.048 37.943 21.042 34.835 21.042C31.727 21.042 29.137 20.048 27.065 18.06C25.021 16.044 23.999 13.538 23.999 10.542C23.999 7.518 25.021 5.012 27.065 3.024ZM38.783 6.468C37.747 5.404 36.431 4.872 34.835 4.872C33.239 4.872 31.909 5.404 30.845 6.468C29.809 7.532 29.291 8.89 29.291 10.542C29.291 12.194 29.809 13.552 30.845 14.616C31.909 15.652 33.239 16.17 34.835 16.17C36.431 16.17 37.747 15.652 38.783 14.616C39.847 13.552 40.379 12.194 40.379 10.542C40.379 8.89 39.847 7.532 38.783 6.468Z" fill="white"/>
<path d="M70.2598 10.5C70.2598 13.384 69.3217 15.862 67.4457 17.934C65.5977 20.006 63.1337 21.042 60.0537 21.042C57.5617 21.042 55.6157 20.342 54.2157 18.942V29.064H48.9237V0.546H54.2157V2.058C55.5877 0.686 57.5337 0 60.0537 0C63.1337 0 65.5977 1.036 67.4457 3.108C69.3217 5.18 70.2598 7.644 70.2598 10.5ZM64.9678 10.5C64.9678 8.932 64.4637 7.602 63.4557 6.51C62.4477 5.418 61.1737 4.872 59.6337 4.872C58.0937 4.872 56.7637 5.362 55.6437 6.342C54.5517 7.322 54.0057 8.708 54.0057 10.5C54.0057 12.292 54.5657 13.692 55.6857 14.7C56.8057 15.68 58.1217 16.17 59.6337 16.17C61.1737 16.17 62.4477 15.61 63.4557 14.49C64.4637 13.37 64.9678 12.04 64.9678 10.5Z" fill="white"/>
<path d="M75.4257 3.024C77.4977 1.008 80.0877 0 83.1957 0C86.3037 0 88.8797 1.008 90.9237 3.024C92.9957 5.012 94.0317 7.518 94.0317 10.542C94.0317 13.538 92.9957 16.044 90.9237 18.06C88.8797 20.048 86.3037 21.042 83.1957 21.042C80.0877 21.042 77.4977 20.048 75.4257 18.06C73.3817 16.044 72.3597 13.538 72.3597 10.542C72.3597 7.518 73.3817 5.012 75.4257 3.024ZM87.1437 6.468C86.1077 5.404 84.7917 4.872 83.1957 4.872C81.5997 4.872 80.2698 5.404 79.2057 6.468C78.1697 7.532 77.6517 8.89 77.6517 10.542C77.6517 12.194 78.1697 13.552 79.2057 14.616C80.2698 15.652 81.5997 16.17 83.1957 16.17C84.7917 16.17 86.1077 15.652 87.1437 14.616C88.2077 13.552 88.7397 12.194 88.7397 10.542C88.7397 8.89 88.2077 7.532 87.1437 6.468Z" fill="white"/>
<path d="M97.2844 20.496V0.546H102.576V15.876H109.716V0.546H115.008V15.876H122.148V0.546H127.44V20.496H97.2844Z" fill="white"/>
<path d="M140.305 0C143.357 0 145.793 0.714 147.613 2.142C149.461 3.57 150.385 5.558 150.385 8.106V20.496H145.093V18.984C143.721 20.356 141.565 21.042 138.625 21.042C136.161 21.042 134.229 20.454 132.829 19.278C131.457 18.102 130.771 16.436 130.771 14.28C130.771 11.984 131.653 10.36 133.417 9.408C135.209 8.428 137.463 7.938 140.179 7.938H145.093C145.093 6.846 144.659 6.034 143.791 5.502C142.923 4.97 141.803 4.704 140.431 4.704C137.995 4.704 136.441 5.502 135.769 7.098H130.309C130.841 4.774 132.031 3.01 133.879 1.806C135.755 0.602 137.897 0 140.305 0ZM145.093 12.726V11.886H140.179C137.435 11.886 136.063 12.698 136.063 14.322C136.063 15.05 136.371 15.652 136.987 16.128C137.631 16.576 138.527 16.8 139.675 16.8C141.187 16.8 142.461 16.45 143.497 15.75C144.561 15.022 145.093 14.014 145.093 12.726Z" fill="white"/>
<path d="M172.105 20.496H166.813V14.742H163.831L158.875 20.496H152.029L157.489 14.154C156.061 13.594 154.983 12.74 154.255 11.592C153.527 10.444 153.163 9.128 153.163 7.644C153.163 5.6 153.835 3.906 155.179 2.562C156.551 1.218 158.539 0.546 161.143 0.546H172.105V20.496ZM166.813 10.122V5.166H161.311C159.407 5.166 158.455 5.992 158.455 7.644C158.455 8.428 158.707 9.044 159.211 9.492C159.715 9.912 160.415 10.122 161.311 10.122H166.813Z" fill="white"/>
<path d="M23.184 43.45L18.354 54.496H13.062L8.31598 43.45V54.496H3.02398V34.546H9.28198L15.75 49.372L22.302 34.546H28.476V54.496H23.184V43.45Z" fill="white"/>
<path d="M34.776 37.024C36.848 35.008 39.438 34 42.546 34C45.654 34 48.23 35.008 50.274 37.024C52.346 39.012 53.382 41.518 53.382 44.542C53.382 47.538 52.346 50.044 50.274 52.06C48.23 54.048 45.654 55.042 42.546 55.042C39.438 55.042 36.848 54.048 34.776 52.06C32.732 50.044 31.71 47.538 31.71 44.542C31.71 41.518 32.732 39.012 34.776 37.024ZM46.494 40.468C45.458 39.404 44.142 38.872 42.546 38.872C40.95 38.872 39.62 39.404 38.556 40.468C37.52 41.532 37.002 42.89 37.002 44.542C37.002 46.194 37.52 47.552 38.556 48.616C39.62 49.652 40.95 50.17 42.546 50.17C44.142 50.17 45.458 49.652 46.494 48.616C47.558 47.552 48.09 46.194 48.09 44.542C48.09 42.89 47.558 41.532 46.494 40.468Z" fill="white"/>
<path d="M71.5447 34.546H76.8367V54.496H71.5447V46.726H61.9267V54.496H56.6347V34.546H61.9267V42.106H71.5447V34.546Z" fill="white"/>
<path d="M94.9807 48.448H100.693C99.9087 50.464 98.6207 52.074 96.8287 53.278C95.0367 54.454 93.0487 55.042 90.8647 55.042C87.7567 55.042 85.1807 54.048 83.1367 52.06C81.0927 50.044 80.0707 47.524 80.0707 44.5C80.0707 41.504 81.0647 39.012 83.0527 37.024C85.0407 35.008 87.5747 34 90.6547 34C93.7067 34 96.1987 34.994 98.1307 36.982C100.063 38.97 101.029 41.448 101.029 44.416C101.029 45.34 101.001 45.956 100.945 46.264H85.5727C85.8527 47.468 86.4687 48.42 87.4207 49.12C88.4007 49.82 89.5487 50.17 90.8647 50.17C92.6847 50.17 94.0567 49.596 94.9807 48.448ZM85.6987 42.316H95.4007C95.2327 41.168 94.7147 40.258 93.8467 39.586C92.9787 38.886 91.9147 38.536 90.6547 38.536C89.4227 38.536 88.3307 38.886 87.3787 39.586C86.4267 40.286 85.8667 41.196 85.6987 42.316Z" fill="white"/>
<path d="M121.822 34.546V39.166H114.346V54.496H109.054V39.166H101.62V34.546H121.822Z" fill="white"/>
<path d="M133.21 34C136.262 34 138.698 34.714 140.518 36.142C142.366 37.57 143.29 39.558 143.29 42.106V54.496H137.998V52.984C136.626 54.356 134.47 55.042 131.53 55.042C129.066 55.042 127.134 54.454 125.734 53.278C124.362 52.102 123.676 50.436 123.676 48.28C123.676 45.984 124.558 44.36 126.322 43.408C128.114 42.428 130.368 41.938 133.084 41.938H137.998C137.998 40.846 137.564 40.034 136.696 39.502C135.828 38.97 134.708 38.704 133.336 38.704C130.9 38.704 129.346 39.502 128.674 41.098H123.214C123.746 38.774 124.936 37.01 126.784 35.806C128.66 34.602 130.802 34 133.21 34ZM137.998 46.726V45.886H133.084C130.34 45.886 128.968 46.698 128.968 48.322C128.968 49.05 129.276 49.652 129.892 50.128C130.536 50.576 131.432 50.8 132.58 50.8C134.092 50.8 135.366 50.45 136.402 49.75C137.466 49.022 137.998 48.014 137.998 46.726Z" fill="white"/>
<g clip-path="url(#clip0)">
<path d="M56 44.496C56 52.2281 49.7321 58.496 42 58.496C34.2679 58.496 28 52.2281 28 44.496C28 36.7639 34.2679 30.496 42 30.496C49.7321 30.496 56 36.7639 56 44.496Z" fill="url(#paint0_radial)"/>
<path d="M28 44.496C28 49.4929 30.6184 53.8775 34.5574 56.3549H49.4426C53.3816 53.8775 56 49.4929 56 44.496C56 39.4991 53.3816 35.1145 49.4426 32.6371H34.5574C30.6184 35.1145 28 39.4991 28 44.496Z" fill="url(#paint1_linear)"/>
<path d="M28 44.496C28 48.0607 29.333 51.3134 31.5267 53.7852H52.4733C54.667 51.3134 56 48.0607 56 44.496C56 40.9313 54.667 37.6786 52.4733 35.207H31.5267C29.333 37.6786 28 40.9313 28 44.496V44.496Z" fill="url(#paint2_linear)"/>
<path d="M28 44.496C28 46.5795 28.4557 48.5561 29.2719 50.3328H54.7281C55.5443 48.5561 56 46.5795 56 44.496C56 42.4125 55.5443 40.4359 54.7281 38.6592H29.2719C28.4557 40.4359 28 42.4125 28 44.496Z" fill="url(#paint3_linear)"/>
<path d="M28 44.496C28 45.7019 28.153 46.8719 28.4396 47.9883H55.5604C55.847 46.8719 56 45.7019 56 44.496C56 43.2901 55.847 42.1201 55.5604 41.0037H28.4396C28.153 42.1201 28 43.2901 28 44.496V44.496Z" fill="url(#paint4_linear)"/>
<path d="M40.8883 30.5398C33.6762 31.1065 28 37.1382 28 44.496C28 51.8538 33.6762 57.8855 40.8883 58.4522C48.1004 57.8855 53.7766 51.8538 53.7766 44.496C53.7766 37.1382 48.1004 31.1065 40.8883 30.5398Z" fill="url(#paint5_radial)"/>
<path d="M41.6129 31.8211C41.1322 31.7557 40.6443 31.7557 40.1635 31.8211C33.9218 32.6702 29.1115 38.0213 29.1115 44.496C29.1115 50.9707 33.9218 56.3217 40.1635 57.1709C40.6443 57.2363 41.1322 57.2363 41.6129 57.1709C47.8547 56.3217 52.6651 50.9707 52.6651 44.496C52.6651 38.0213 47.8547 32.6702 41.6129 31.8211Z" fill="url(#paint6_radial)"/>
<path d="M50.1933 44.496C50.1933 38.8546 46.0018 34.2814 40.8315 34.2814C35.661 34.2814 31.4695 38.8546 31.4695 44.496C31.4695 50.1374 35.661 54.7106 40.8315 54.7106C46.0018 54.7106 50.1933 50.1374 50.1933 44.496Z" fill="url(#paint7_radial)"/>
<path d="M43.4018 34.6719C42.2363 34.3096 40.9913 34.3096 39.8258 34.6719C35.9052 35.8906 33.0341 39.8273 33.0341 44.496C33.0341 49.256 36.0186 53.2552 40.0571 54.3885C41.0742 54.6739 42.1534 54.6739 43.1705 54.3885C47.209 53.2552 50.1933 49.2562 50.1933 44.496C50.1933 39.8273 47.3224 35.8906 43.4018 34.6719Z" fill="url(#paint8_radial)"/>
</g>
<defs>
<radialGradient id="paint0_radial" cx="0" cy="0" r="1" gradientUnits="userSpaceOnUse" gradientTransform="translate(41.3202 44.0135) scale(14.5815)">
<stop stop-color="#FFA700"/>
<stop offset="0.3227" stop-color="#FCA300"/>
<stop offset="0.6649" stop-color="#F39600"/>
<stop offset="1" stop-color="#E58200"/>
</radialGradient>
<linearGradient id="paint1_linear" x1="42" y1="42.2841" x2="42" y2="67.3015" gradientUnits="userSpaceOnUse">
<stop stop-color="#E58200" stop-opacity="0"/>
<stop offset="0.0396" stop-color="#E27F04" stop-opacity="0.039216"/>
<stop offset="0.4671" stop-color="#C15D2F" stop-opacity="0.466667"/>
<stop offset="0.8016" stop-color="#AD4949" stop-opacity="0.8"/>
<stop offset="1" stop-color="#A64153"/>
</linearGradient>
<linearGradient id="paint2_linear" x1="42" y1="47.8839" x2="42" y2="22.6028" gradientUnits="userSpaceOnUse">
<stop stop-color="#E58200" stop-opacity="0"/>
<stop offset="0.0396" stop-color="#E27F04" stop-opacity="0.039216"/>
<stop offset="0.4671" stop-color="#C15D2F" stop-opacity="0.466667"/>
<stop offset="0.8016" stop-color="#AD4949" stop-opacity="0.8"/>
<stop offset="1" stop-color="#A64153"/>
</linearGradient>
<linearGradient id="paint3_linear" x1="42" y1="44.9193" x2="42" y2="53.0046" gradientUnits="userSpaceOnUse">
<stop stop-color="#E58200" stop-opacity="0"/>
<stop offset="0.0396" stop-color="#E27F04" stop-opacity="0.039216"/>
<stop offset="0.4671" stop-color="#C15D2F" stop-opacity="0.466667"/>
<stop offset="0.8016" stop-color="#AD4949" stop-opacity="0.8"/>
<stop offset="1" stop-color="#A64153"/>
</linearGradient>
<linearGradient id="paint4_linear" x1="42" y1="47.5545" x2="42" y2="33.7864" gradientUnits="userSpaceOnUse">
<stop stop-color="#E58200" stop-opacity="0"/>
<stop offset="0.0396" stop-color="#E27F04" stop-opacity="0.039216"/>
<stop offset="0.4671" stop-color="#C15D2F" stop-opacity="0.466667"/>
<stop offset="0.8016" stop-color="#AD4949" stop-opacity="0.8"/>
<stop offset="1" stop-color="#A64153"/>
</linearGradient>
<radialGradient id="paint5_radial" cx="0" cy="0" r="1" gradientUnits="userSpaceOnUse" gradientTransform="translate(36.791 40.7195) scale(19.5991)">
<stop stop-color="#FFC738"/>
<stop offset="0.2837" stop-color="#FFC534"/>
<stop offset="0.5391" stop-color="#FFBF29"/>
<stop offset="0.7827" stop-color="#FFB417"/>
<stop offset="1" stop-color="#FFA700"/>
</radialGradient>
<radialGradient id="paint6_radial" cx="0" cy="0" r="1" gradientUnits="userSpaceOnUse" gradientTransform="translate(40.8883 44.496) scale(12.2595)">
<stop stop-color="#FFFCF8"/>
<stop offset="0.9485" stop-color="#FFFCF8" stop-opacity="0.05098"/>
<stop offset="1" stop-color="#FFFCF8" stop-opacity="0"/>
</radialGradient>
<radialGradient id="paint7_radial" cx="0" cy="0" r="1" gradientUnits="userSpaceOnUse" gradientTransform="translate(41.7899 43.1863) scale(14.6521 15.987)">
<stop stop-color="#FFA700"/>
<stop offset="0.3227" stop-color="#FCA300"/>
<stop offset="0.6649" stop-color="#F39600"/>
<stop offset="1" stop-color="#E58200"/>
</radialGradient>
<radialGradient id="paint8_radial" cx="0" cy="0" r="1" gradientUnits="userSpaceOnUse" gradientTransform="translate(38.0452 40.9828) scale(14.9314)">
<stop stop-color="#FFC738"/>
<stop offset="0.2837" stop-color="#FFC534"/>
<stop offset="0.5391" stop-color="#FFBF29"/>
<stop offset="0.7827" stop-color="#FFB417"/>
<stop offset="1" stop-color="#FFA700"/>
</radialGradient>
<clipPath id="clip0">
<rect width="28" height="28" fill="white" transform="translate(28 30.496)"/>
</clipPath>
</defs>
</svg>