<svg width="120" height="41" viewBox="0 0 120 41" fill="none" xmlns="http://www.w3.org/2000/svg">
<path d="M4.88113 0.379968L8.00855 4.32579L11.1944 0.379968H15.7541L10.2591 7.16093L15.9002 14.2634H11.1652L7.86241 10.113L4.50116 14.2634H0L5.61183 7.30708L0.146142 0.379968H4.88113Z" fill="black"/>
<path d="M18.3088 2.10444C19.7507 0.701479 21.5531 0 23.716 0C25.8789 0 27.6716 0.701479 29.094 2.10444C30.536 3.48791 31.2569 5.23187 31.2569 7.3363C31.2569 9.42126 30.536 11.1652 29.094 12.5682C27.6716 13.9516 25.8789 14.6434 23.716 14.6434C21.5531 14.6434 19.7507 13.9516 18.3088 12.5682C16.8863 11.1652 16.1751 9.42126 16.1751 7.3363C16.1751 5.23187 16.8863 3.48791 18.3088 2.10444ZM26.4635 4.50116C25.7425 3.76071 24.8267 3.39048 23.716 3.39048C22.6053 3.39048 21.6798 3.76071 20.9393 4.50116C20.2184 5.24161 19.8579 6.18666 19.8579 7.3363C19.8579 8.48595 20.2184 9.431 20.9393 10.1714C21.6798 10.8924 22.6053 11.2529 23.716 11.2529C24.8267 11.2529 25.7425 10.8924 26.4635 10.1714C27.2039 9.431 27.5742 8.48595 27.5742 7.3363C27.5742 6.18666 27.2039 5.24161 26.4635 4.50116Z" fill="black"/>
<path d="M48.3685 7.30708C48.3685 9.31409 47.7157 11.0386 46.4102 12.4805C45.1242 13.9224 43.4094 14.6434 41.266 14.6434C39.5318 14.6434 38.1776 14.1562 37.2033 13.182V20.226H33.5205V0.379968H37.2033V1.43219C38.1581 0.477396 39.5123 0 41.266 0C43.4094 0 45.1242 0.720965 46.4102 2.16289C47.7157 3.60482 48.3685 5.31955 48.3685 7.30708ZM44.6857 7.30708C44.6857 6.21589 44.335 5.29032 43.6335 4.53039C42.932 3.77045 42.0454 3.39048 40.9737 3.39048C39.902 3.39048 38.9765 3.73148 38.197 4.41347C37.4371 5.09547 37.0571 6.06 37.0571 7.30708C37.0571 8.55415 37.4468 9.52843 38.2263 10.2299C39.0057 10.9119 39.9215 11.2529 40.9737 11.2529C42.0454 11.2529 42.932 10.8632 43.6335 10.0838C44.335 9.30434 44.6857 8.37878 44.6857 7.30708Z" fill="black"/>
<path d="M51.9636 2.10444C53.4055 0.701479 55.2079 0 57.3708 0C59.5337 0 61.3264 0.701479 62.7488 2.10444C64.1907 3.48791 64.9117 5.23187 64.9117 7.3363C64.9117 9.42126 64.1907 11.1652 62.7488 12.5682C61.3264 13.9516 59.5337 14.6434 57.3708 14.6434C55.2079 14.6434 53.4055 13.9516 51.9636 12.5682C50.5411 11.1652 49.8299 9.42126 49.8299 7.3363C49.8299 5.23187 50.5411 3.48791 51.9636 2.10444ZM60.1183 4.50116C59.3973 3.76071 58.4815 3.39048 57.3708 3.39048C56.2601 3.39048 55.3346 3.76071 54.5941 4.50116C53.8732 5.24161 53.5127 6.18666 53.5127 7.3363C53.5127 8.48595 53.8732 9.431 54.5941 10.1714C55.3346 10.8924 56.2601 11.2529 57.3708 11.2529C58.4815 11.2529 59.3973 10.8924 60.1183 10.1714C60.8587 9.431 61.2289 8.48595 61.2289 7.3363C61.2289 6.18666 60.8587 5.24161 60.1183 4.50116Z" fill="black"/>
<path d="M67.1753 14.2634V0.379968H70.8581V11.0483H75.8269V0.379968H79.5096V11.0483H84.4785V0.379968H88.1612V14.2634H67.1753Z" fill="black"/>
<path d="M97.114 0C99.2379 0 100.933 0.496881 102.2 1.49064C103.486 2.48441 104.129 3.86788 104.129 5.64106V14.2634H100.446V13.2112C99.4912 14.166 97.9908 14.6434 95.9449 14.6434C94.2301 14.6434 92.8856 14.2342 91.9114 13.4158C90.9566 12.5974 90.4792 11.438 90.4792 9.93762C90.4792 8.33981 91.093 7.20965 92.3205 6.54714C93.5676 5.86515 95.1362 5.52415 97.0263 5.52415H100.446C100.446 4.76421 100.144 4.19913 99.5399 3.82891C98.9359 3.45868 98.1565 3.27357 97.2017 3.27357C95.5064 3.27357 94.425 3.82891 93.9573 4.93958H90.1577C90.5279 3.32228 91.356 2.0947 92.6421 1.25682C93.9476 0.418939 95.4382 0 97.114 0ZM100.446 8.85618V8.27161H97.0263C95.1167 8.27161 94.1619 8.83669 94.1619 9.96685C94.1619 10.4735 94.3763 10.8924 94.805 11.2237C95.2531 11.5354 95.8767 11.6913 96.6756 11.6913C97.7278 11.6913 98.6144 11.4478 99.3353 10.9606C100.076 10.454 100.446 9.75251 100.446 8.85618Z" fill="black"/>
<path d="M119.244 14.2634H115.561V10.2591H113.486L110.037 14.2634H105.273L109.073 9.84994C108.079 9.46023 107.329 8.86592 106.822 8.06701C106.315 7.2681 106.062 6.35228 106.062 5.31955C106.062 3.89711 106.53 2.71823 107.465 1.78293C108.42 0.847621 109.803 0.379968 111.616 0.379968H119.244V14.2634ZM115.561 7.04402V3.59508H111.732C110.407 3.59508 109.745 4.1699 109.745 5.31955C109.745 5.86515 109.92 6.29383 110.271 6.6056C110.622 6.89788 111.109 7.04402 111.732 7.04402H115.561Z" fill="black"/>
<path d="M15.6079 30.2374L12.2467 37.9244H8.56389L5.26109 30.2374V37.9244H1.57833V24.041H5.93334L10.4345 34.3586L14.9941 24.041H19.2907V37.9244H15.6079V30.2374Z" fill="black"/>
<path d="M23.6749 25.7654C25.1168 24.3625 26.9193 23.661 29.0822 23.661C31.2451 23.661 33.0377 24.3625 34.4602 25.7654C35.9021 27.1489 36.6231 28.8929 36.6231 30.9973C36.6231 33.0823 35.9021 34.8262 34.4602 36.2292C33.0377 37.6126 31.2451 38.3044 29.0822 38.3044C26.9193 38.3044 25.1168 37.6126 23.6749 36.2292C22.2525 34.8262 21.5413 33.0823 21.5413 30.9973C21.5413 28.8929 22.2525 27.1489 23.6749 25.7654ZM31.8296 28.1622C31.1087 27.4217 30.1928 27.0515 29.0822 27.0515C27.9715 27.0515 27.0459 27.4217 26.3055 28.1622C25.5845 28.9026 25.224 29.8477 25.224 30.9973C25.224 32.1469 25.5845 33.092 26.3055 33.8325C27.0459 34.5534 27.9715 34.9139 29.0822 34.9139C30.1928 34.9139 31.1087 34.5534 31.8296 33.8325C32.5701 33.092 32.9403 32.1469 32.9403 30.9973C32.9403 29.8477 32.5701 28.9026 31.8296 28.1622Z" fill="black"/>
<path d="M49.2627 24.041H52.9455V37.9244H49.2627V32.5172H42.5694V37.9244H38.8867V24.041H42.5694V29.3021H49.2627V24.041Z" fill="black"/>
<path d="M65.5721 33.7155H69.5471C69.0015 35.1185 68.1052 36.2389 66.8581 37.0768C65.6111 37.8952 64.2276 38.3044 62.7077 38.3044C60.5448 38.3044 58.7521 37.6126 57.3297 36.2292C55.9073 34.8262 55.196 33.0725 55.196 30.9681C55.196 28.8831 55.8878 27.1489 57.2712 25.7654C58.6547 24.3625 60.4182 23.661 62.5616 23.661C64.6855 23.661 66.4197 24.3527 67.7642 25.7362C69.1087 27.1197 69.781 28.8442 69.781 30.9096C69.781 31.5526 69.7615 31.9813 69.7225 32.1957H59.0249C59.2198 33.0335 59.6485 33.6961 60.311 34.1832C60.993 34.6703 61.7919 34.9139 62.7077 34.9139C63.9743 34.9139 64.9291 34.5144 65.5721 33.7155ZM59.1126 29.4482H65.8644C65.7475 28.6493 65.387 28.016 64.7829 27.5484C64.1789 27.0612 63.4384 26.8177 62.5616 26.8177C61.7042 26.8177 60.9443 27.0612 60.2818 27.5484C59.6193 28.0355 59.2295 28.6688 59.1126 29.4482Z" fill="black"/>
<path d="M84.2513 24.041V27.2561H79.0486V37.9244H75.3658V27.2561H70.1924V24.041H84.2513Z" fill="black"/>
<path d="M92.176 23.661C94.2999 23.661 95.9952 24.1579 97.2617 25.1516C98.5478 26.1454 99.1908 27.5289 99.1908 29.3021V37.9244H95.508V36.8722C94.5532 37.827 93.0528 38.3044 91.0069 38.3044C89.2921 38.3044 87.9476 37.8952 86.9734 37.0768C86.0186 36.2584 85.5412 35.099 85.5412 33.5986C85.5412 32.0008 86.155 30.8706 87.3826 30.2081C88.6296 29.5261 90.1982 29.1852 92.0883 29.1852H95.508C95.508 28.4252 95.206 27.8601 94.6019 27.4899C93.9979 27.1197 93.2185 26.9346 92.2637 26.9346C90.5684 26.9346 89.487 27.4899 89.0193 28.6006H85.2197C85.5899 26.9833 86.418 25.7557 87.7041 24.9178C89.0096 24.0799 90.5003 23.661 92.176 23.661ZM95.508 32.5172V31.9326H92.0883C90.1787 31.9326 89.2239 32.4977 89.2239 33.6279C89.2239 34.1345 89.4383 34.5534 89.867 34.8847C90.3151 35.1964 90.9387 35.3523 91.7376 35.3523C92.7898 35.3523 93.6764 35.1088 94.3974 34.6216C95.1378 34.115 95.508 33.4135 95.508 32.5172Z" fill="black"/>
<g clip-path="url(#clip0)">
<path d="M38.445 30.9653C38.445 36.3461 34.0831 40.708 28.7022 40.708C23.3214 40.708 18.9595 36.3461 18.9595 30.9653C18.9595 25.5844 23.3214 21.2225 28.7022 21.2225C34.0831 21.2225 38.445 25.5844 38.445 30.9653Z" fill="url(#paint0_radial)"/>
<path d="M18.9595 30.9653C18.9595 34.4427 20.7816 37.494 23.5228 39.218H33.8816C36.6228 37.494 38.445 34.4427 38.445 30.9653C38.445 27.4879 36.6228 24.4366 33.8816 22.7126H23.5228C20.7816 24.4366 18.9595 27.4879 18.9595 30.9653Z" fill="url(#paint1_linear)"/>
<path d="M18.9595 30.9652C18.9595 33.446 19.8871 35.7095 21.4137 37.4297H35.9907C37.5173 35.7095 38.445 33.446 38.445 30.9652C38.445 28.4845 37.5173 26.221 35.9907 24.5009H21.4137C19.8871 26.221 18.9595 28.4845 18.9595 30.9652V30.9652Z" fill="url(#paint2_linear)"/>
<path d="M18.9595 30.9653C18.9595 32.4152 19.2766 33.7907 19.8446 35.0272H37.5599C38.1279 33.7907 38.445 32.4152 38.445 30.9653C38.445 29.5154 38.1279 28.1398 37.5599 26.9034H19.8446C19.2766 28.1398 18.9595 29.5154 18.9595 30.9653Z" fill="url(#paint3_linear)"/>
<path d="M18.9595 30.9653C18.9595 31.8045 19.0659 32.6187 19.2654 33.3956H38.1391C38.3386 32.6187 38.445 31.8045 38.445 30.9653C38.445 30.1261 38.3386 29.3119 38.1391 28.5349H19.2654C19.0659 29.3119 18.9595 30.1261 18.9595 30.9653V30.9653Z" fill="url(#paint4_linear)"/>
<path d="M27.9286 21.2531C22.9096 21.6475 18.9595 25.845 18.9595 30.9654C18.9595 36.0858 22.9096 40.2833 27.9286 40.6777C32.9476 40.2833 36.8977 36.0858 36.8977 30.9654C36.8977 25.845 32.9476 21.6475 27.9286 21.2531Z" fill="url(#paint5_radial)"/>
<path d="M28.4328 22.1447C28.0983 22.0992 27.7588 22.0992 27.4241 22.1447C23.0805 22.7356 19.7329 26.4594 19.7329 30.9653C19.7329 35.4711 23.0805 39.1949 27.4241 39.7859C27.7588 39.8314 28.0983 39.8314 28.4328 39.7859C32.7766 39.1949 36.1242 35.4711 36.1242 30.9653C36.1242 26.4594 32.7766 22.7356 28.4328 22.1447Z" fill="url(#paint6_radial)"/>
<path d="M34.4039 30.9653C34.4039 27.0394 31.487 23.8568 27.8889 23.8568C24.2907 23.8568 21.3738 27.0394 21.3738 30.9653C21.3738 34.8912 24.2907 38.0737 27.8889 38.0737C31.487 38.0737 34.4039 34.8912 34.4039 30.9653Z" fill="url(#paint7_radial)"/>
<path d="M29.6777 24.1286C28.8666 23.8764 28.0002 23.8764 27.1891 24.1286C24.4607 24.9767 22.4626 27.7162 22.4626 30.9653C22.4626 34.2778 24.5396 37.0609 27.3501 37.8495C28.0579 38.0481 28.8089 38.0481 29.5167 37.8495C32.3272 37.0609 34.404 34.2779 34.404 30.9653C34.404 27.7162 32.4061 24.9767 29.6777 24.1286Z" fill="url(#paint8_radial)"/>
</g>
<defs>
<radialGradient id="paint0_radial" cx="0" cy="0" r="1" gradientUnits="userSpaceOnUse" gradientTransform="translate(28.2292 30.6295) scale(10.1475)">
<stop stop-color="#FFA700"/>
<stop offset="0.3227" stop-color="#FCA300"/>
<stop offset="0.6649" stop-color="#F39600"/>
<stop offset="1" stop-color="#E58200"/>
</radialGradient>
<linearGradient id="paint1_linear" x1="28.7022" y1="29.426" x2="28.7022" y2="46.8359" gradientUnits="userSpaceOnUse">
<stop stop-color="#E58200" stop-opacity="0"/>
<stop offset="0.0396" stop-color="#E27F04" stop-opacity="0.039216"/>
<stop offset="0.4671" stop-color="#C15D2F" stop-opacity="0.466667"/>
<stop offset="0.8016" stop-color="#AD4949" stop-opacity="0.8"/>
<stop offset="1" stop-color="#A64153"/>
</linearGradient>
<linearGradient id="paint2_linear" x1="28.7022" y1="33.3229" x2="28.7022" y2="15.7295" gradientUnits="userSpaceOnUse">
<stop stop-color="#E58200" stop-opacity="0"/>
<stop offset="0.0396" stop-color="#E27F04" stop-opacity="0.039216"/>
<stop offset="0.4671" stop-color="#C15D2F" stop-opacity="0.466667"/>
<stop offset="0.8016" stop-color="#AD4949" stop-opacity="0.8"/>
<stop offset="1" stop-color="#A64153"/>
</linearGradient>
<linearGradient id="paint3_linear" x1="28.7022" y1="31.2598" x2="28.7022" y2="36.8865" gradientUnits="userSpaceOnUse">
<stop stop-color="#E58200" stop-opacity="0"/>
<stop offset="0.0396" stop-color="#E27F04" stop-opacity="0.039216"/>
<stop offset="0.4671" stop-color="#C15D2F" stop-opacity="0.466667"/>
<stop offset="0.8016" stop-color="#AD4949" stop-opacity="0.8"/>
<stop offset="1" stop-color="#A64153"/>
</linearGradient>
<linearGradient id="paint4_linear" x1="28.7022" y1="33.0937" x2="28.7022" y2="23.5124" gradientUnits="userSpaceOnUse">
<stop stop-color="#E58200" stop-opacity="0"/>
<stop offset="0.0396" stop-color="#E27F04" stop-opacity="0.039216"/>
<stop offset="0.4671" stop-color="#C15D2F" stop-opacity="0.466667"/>
<stop offset="0.8016" stop-color="#AD4949" stop-opacity="0.8"/>
<stop offset="1" stop-color="#A64153"/>
</linearGradient>
<radialGradient id="paint5_radial" cx="0" cy="0" r="1" gradientUnits="userSpaceOnUse" gradientTransform="translate(25.0772 28.3373) scale(13.6393)">
<stop stop-color="#FFC738"/>
<stop offset="0.2837" stop-color="#FFC534"/>
<stop offset="0.5391" stop-color="#FFBF29"/>
<stop offset="0.7827" stop-color="#FFB417"/>
<stop offset="1" stop-color="#FFA700"/>
</radialGradient>
<radialGradient id="paint6_radial" cx="0" cy="0" r="1" gradientUnits="userSpaceOnUse" gradientTransform="translate(27.9285 30.9653) scale(8.53154)">
<stop stop-color="#FFFCF8"/>
<stop offset="0.9485" stop-color="#FFFCF8" stop-opacity="0.05098"/>
<stop offset="1" stop-color="#FFFCF8" stop-opacity="0"/>
</radialGradient>
<radialGradient id="paint7_radial" cx="0" cy="0" r="1" gradientUnits="userSpaceOnUse" gradientTransform="translate(28.5558 30.0538) scale(10.1966 11.1256)">
<stop stop-color="#FFA700"/>
<stop offset="0.3227" stop-color="#FCA300"/>
<stop offset="0.6649" stop-color="#F39600"/>
<stop offset="1" stop-color="#E58200"/>
</radialGradient>
<radialGradient id="paint8_radial" cx="0" cy="0" r="1" gradientUnits="userSpaceOnUse" gradientTransform="translate(25.95 28.5204) scale(10.3909)">
<stop stop-color="#FFC738"/>
<stop offset="0.2837" stop-color="#FFC534"/>
<stop offset="0.5391" stop-color="#FFBF29"/>
<stop offset="0.7827" stop-color="#FFB417"/>
<stop offset="1" stop-color="#FFA700"/>
</radialGradient>
<clipPath id="clip0">
<rect width="19.4855" height="19.4855" fill="white" transform="translate(18.9595 21.2225)"/>
</clipPath>
</defs>
</svg>
