<svg width="1202" height="12" viewBox="0 0 1202 12" fill="none" xmlns="http://www.w3.org/2000/svg">
<path d="M1 6C7.66667 -0.666667 14.3333 -0.666667 21 6C27.6667 12.6667 34.3333 12.6667 41 6C47.6667 -0.666667 54.3333 -0.666667 61 6C67.6667 12.6667 74.3333 12.6667 81 6C87.6667 -0.666667 94.3333 -0.666667 101 6C107.667 12.6667 114.333 12.6667 121 6C127.667 -0.666667 134.333 -0.666667 141 6C147.667 12.6667 154.333 12.6667 161 6C167.667 -0.666667 174.333 -0.666667 181 6C187.667 12.6667 194.333 12.6667 201 6C207.667 -0.666667 214.333 -0.666667 221 6C227.667 12.6667 234.333 12.6667 241 6C247.667 -0.666667 254.333 -0.666667 261 6C267.667 12.6667 274.333 12.6667 281 6C287.667 -0.666667 294.333 -0.666667 301 6C307.667 12.6667 314.333 12.6667 321 6C327.667 -0.666667 334.333 -0.666667 341 6C347.667 12.6667 354.333 12.6667 361 6C367.667 -0.666667 374.333 -0.666667 381 6C387.667 12.6667 394.333 12.6667 401 6C407.667 -0.666667 414.333 -0.666667 421 6C427.667 12.6667 434.333 12.6667 441 6C447.667 -0.666667 454.333 -0.666667 461 6C467.667 12.6667 474.333 12.6667 481 6C487.667 -0.666667 494.333 -0.666667 501 6C507.667 12.6667 514.333 12.6667 521 6C527.667 -0.666667 534.333 -0.666667 541 6C547.667 12.6667 554.333 12.6667 561 6C567.667 -0.666667 574.333 -0.666667 581 6C587.667 12.6667 594.333 12.6667 601 6C607.667 -0.666667 614.333 -0.666667 621 6C627.667 12.6667 634.333 12.6667 641 6C647.667 -0.666667 654.333 -0.666667 661 6C667.667 12.6667 674.333 12.6667 681 6C687.667 -0.666667 694.333 -0.666667 701 6C707.667 12.6667 714.333 12.6667 721 6C727.667 -0.666667 734.333 -0.666667 741 6C747.667 12.6667 754.333 12.6667 761 6C767.667 -0.666667 774.333 -0.666667 781 6C787.667 12.6667 794.333 12.6667 801 6C807.667 -0.666667 814.333 -0.666667 821 6C827.667 12.6667 834.333 12.6667 841 6C847.667 -0.666667 854.333 -0.666667 861 6C867.667 12.6667 874.333 12.6667 881 6C887.667 -0.666667 894.333 -0.666667 901 6C907.667 12.6667 914.333 12.6667 921 6C927.667 -0.666667 934.333 -0.666667 941 6C947.667 12.6667 954.333 12.6667 961 6C967.667 -0.666667 974.333 -0.666667 981 6C987.667 12.6667 994.333 12.6667 1001 6C1007.67 -0.666667 1014.33 -0.666667 1021 6C1027.67 12.6667 1034.33 12.6667 1041 6C1047.67 -0.666667 1054.33 -0.666667 1061 6C1067.67 12.6667 1074.33 12.6667 1081 6C1087.67 -0.666667 1094.33 -0.666667 1101 6C1107.67 12.6667 1114.33 12.6667 1121 6C1127.67 -0.666667 1134.33 -0.666667 1141 6C1147.67 12.6667 1154.33 12.6667 1161 6C1167.67 -0.666667 1174.33 -0.666667 1181 6C1187.67 12.6667 1194.33 12.6667 1201 6" stroke="#E9E9E9" stroke-width="2"/>
</svg>
