<svg width="463" height="7" viewBox="0 0 463 7" fill="none" xmlns="http://www.w3.org/2000/svg">
<path d="M1 3.5C8.68333 0.166667 16.3667 0.166667 24.05 3.5C31.7333 6.83333 39.4167 6.83333 47.1 3.5C54.7833 0.166667 62.4667 0.166667 70.15 3.5C77.8333 6.83333 85.5167 6.83333 93.2 3.5C100.883 0.166667 108.567 0.166667 116.25 3.5C123.933 6.83333 131.617 6.83333 139.3 3.5C146.983 0.166667 154.667 0.166667 162.35 3.5C170.033 6.83333 177.717 6.83333 185.4 3.5C193.083 0.166667 200.767 0.166667 208.45 3.5C216.133 6.83333 223.817 6.83333 231.5 3.5C239.183 0.166667 246.867 0.166667 254.55 3.5C262.233 6.83333 269.917 6.83333 277.6 3.5C285.283 0.166667 292.967 0.166667 300.65 3.5C308.333 6.83333 316.017 6.83333 323.7 3.5C331.383 0.166667 339.067 0.166667 346.75 3.5C354.433 6.83333 362.117 6.83333 369.8 3.5C377.483 0.166667 385.167 0.166667 392.85 3.5C400.533 6.83333 408.217 6.83333 415.9 3.5C423.583 0.166667 431.267 0.166667 438.95 3.5C446.633 6.83333 454.317 6.83333 462 3.5" stroke="#E9E9E9" stroke-width="2"/>
</svg>
